<svg id="visual" viewBox="0 0 900 600" width="900" height="600" xmlns="http://www.w3.org/2000/svg" xmlns:xlink="http://www.w3.org/1999/xlink" version="1.1"><rect x="0" y="0" width="900" height="600" fill="#002233"></rect><path d="M0 83L4.8 85.5C9.7 88 19.3 93 29 95C38.7 97 48.3 96 58 93.2C67.7 90.3 77.3 85.7 87 85C96.7 84.3 106.3 87.7 116 90C125.7 92.3 135.3 93.7 145 93.3C154.7 93 164.3 91 174 89.3C183.7 87.7 193.3 86.3 203 86.5C212.7 86.7 222.3 88.3 232 89.7C241.7 91 251.3 92 261 91.2C270.7 90.3 280.3 87.7 290 85.5C299.7 83.3 309.3 81.7 319 82.7C328.7 83.7 338.3 87.3 348 87.5C357.7 87.7 367.3 84.3 377 83C386.7 81.7 396.3 82.3 406 84.8C415.7 87.3 425.3 91.7 435.2 91.7C445 91.7 455 87.3 464.8 86C474.7 84.7 484.3 86.3 494 88.7C503.7 91 513.3 94 523 92.7C532.7 91.3 542.3 85.7 552 84.5C561.7 83.3 571.3 86.7 581 88.7C590.7 90.7 600.3 91.3 610 91.5C619.7 91.7 629.3 91.3 639 91C648.7 90.7 658.3 90.3 668 89.3C677.7 88.3 687.3 86.7 697 85.2C706.7 83.7 716.3 82.3 726 82.5C735.7 82.7 745.3 84.3 755 86.3C764.7 88.3 774.3 90.7 784 91.2C793.7 91.7 803.3 90.3 813 88.5C822.7 86.7 832.3 84.3 842 84.2C851.7 84 861.3 86 871 87.8C880.7 89.7 890.3 91.3 895.2 92.2L900 93L900 0L895.2 0C890.3 0 880.7 0 871 0C861.3 0 851.7 0 842 0C832.3 0 822.7 0 813 0C803.3 0 793.7 0 784 0C774.3 0 764.7 0 755 0C745.3 0 735.7 0 726 0C716.3 0 706.7 0 697 0C687.3 0 677.7 0 668 0C658.3 0 648.7 0 639 0C629.3 0 619.7 0 610 0C600.3 0 590.7 0 581 0C571.3 0 561.7 0 552 0C542.3 0 532.7 0 523 0C513.3 0 503.7 0 494 0C484.3 0 474.7 0 464.8 0C455 0 445 0 435.2 0C425.3 0 415.7 0 406 0C396.3 0 386.7 0 377 0C367.3 0 357.7 0 348 0C338.3 0 328.7 0 319 0C309.3 0 299.7 0 290 0C280.3 0 270.7 0 261 0C251.3 0 241.7 0 232 0C222.3 0 212.7 0 203 0C193.3 0 183.7 0 174 0C164.3 0 154.7 0 145 0C135.3 0 125.7 0 116 0C106.3 0 96.7 0 87 0C77.3 0 67.7 0 58 0C48.3 0 38.7 0 29 0C19.3 0 9.7 0 4.8 0L0 0Z" fill="#0066FF" stroke-linecap="round" stroke-linejoin="miter"></path></svg>